<?xml version="1.0" ?><!DOCTYPE svg  PUBLIC '-//W3C//DTD SVG 1.1//EN'  'http://www.w3.org/Graphics/SVG/1.1/DTD/svg11.dtd'><svg enable-background="new 0 0 512 512" height="512px" id="Layer_1" version="1.1" viewBox="0 0 512 512" width="512px" xml:space="preserve" xmlns="http://www.w3.org/2000/svg" xmlns:xlink="http://www.w3.org/1999/xlink"><path d="M456,336.63c0,27.7-22.463,50.37-50.163,50.37  H136.782l0,0c-0.221,0,0.221,0,0,0C91.805,387,56,350.337,56,305.36c0-44.977,36.456-81.537,81.433-81.537  c3.922,0,7.778,0.222,11.557,0.769c13.941-56.938,65.316-99.218,126.554-99.218c71.961,0,130.293,58.319,130.293,130.28  c0,10.593-1.264,20.879-3.661,30.743c1.212-0.091,2.423-0.03,3.661-0.03C433.537,286.367,456,308.93,456,336.63z" fill="none" stroke="#000000" stroke-miterlimit="10" stroke-width="30"/></svg>